<svg width="52" height="49" viewBox="0 0 52 49" fill="none" xmlns="http://www.w3.org/2000/svg">
<path d="M2.65297 15.87L14.2252 43.6472C15.138 45.8381 17.7049 46.8538 19.9601 45.9143L40.3662 37.4129C42.6215 36.4733 43.708 33.9356 42.7952 31.7446M2.65297 15.87C3.56649 18.0627 6.13263 19.0766 8.38787 18.1371L29.3047 9.42293C30.2518 9.02833 31.3169 9.02616 32.2657 9.41687C33.2145 9.80759 33.9692 10.5592 34.3637 11.5064C34.3637 11.5064 35.6484 14.59 36.4716 16.5659M2.65297 15.87C1.74019 13.679 2.82669 11.1413 5.08194 10.2018L21.4079 3.4002C23.6614 2.46139 26.2282 3.47706 27.141 5.66803L28.794 9.63568" stroke="#454A5E" stroke-width="3.86878" stroke-linecap="round" stroke-linejoin="round"/>
<path d="M51.2951 3.8718C51.2951 3.8718 40.2111 3.33501 31.4773 15.304C24.7747 24.4875 22.2793 32.8876 22.2793 32.8876L25.0938 31.4368C27.183 27.8099 28.2711 26.3155 30.3167 24.1829C33.9872 25.2565 37.8173 25.1259 41.1396 21.2813C38.238 20.4689 35.9167 20.6575 32.4929 21.0056C36.3375 18.3797 38.9634 17.7994 42.5904 18.3797L44.0412 15.4781C41.4297 14.9849 39.6888 14.9413 37.1064 15.5362C39.9644 13.5196 41.952 12.3879 45.492 12.5765L47.2474 9.77652C44.9842 9.61693 43.6204 9.86357 41.0235 10.5019C43.3593 8.38376 45.492 7.42624 48.5966 7.23764C48.5966 7.23764 50.12 4.49564 51.2951 3.8718Z" fill="#ED7AF7"/>
</svg>
